<svg width="720" height="220" viewBox="0 0 720 220" fill="none" xmlns="http://www.w3.org/2000/svg">
  <rect width="720" height="220" rx="40" fill="#07111F"/>
  <rect x="1" y="1" width="718" height="218" rx="39" stroke="#22D3EE" stroke-opacity=".22" stroke-width="2"/>
  <g transform="translate(42 42) scale(.27)">
    <rect x="48" y="48" width="416" height="416" rx="104" fill="#0B1728"/>
    <rect x="61" y="61" width="390" height="390" rx="92" stroke="#22D3EE" stroke-width="18"/>
    <path d="M160 186v-34h34M318 152h34v34M352 318v34h-34M194 352h-34v-34" stroke="#22D3EE" stroke-width="22" stroke-linecap="round" stroke-linejoin="round"/>
    <path d="M198 214h28v28h-28v-28ZM258 214h28v28h-28v-28ZM318 214h28v28h-28v-28ZM198 274h28v28h-28v-28ZM258 274h28v28h-28v-28ZM318 274h28v28h-28v-28Z" fill="#E2F7FF"/>
    <path d="M236 336l25 25 58-72" stroke="#34D399" stroke-width="22" stroke-linecap="round" stroke-linejoin="round"/>
  </g>
  <text x="205" y="92" fill="#F8FAFC" font-family="Segoe UI, Arial, sans-serif" font-size="40" font-weight="850">School Inventory</text>
  <text x="205" y="140" fill="#22D3EE" font-family="Segoe UI, Arial, sans-serif" font-size="40" font-weight="850">Scanner</text>
  <text x="205" y="174" fill="#94A3B8" font-family="Segoe UI, Arial, sans-serif" font-size="19" font-weight="600">Native Android companion app</text>
</svg>
