<svg width="1200" height="360" viewBox="0 0 1200 360" fill="none" xmlns="http://www.w3.org/2000/svg">
  <rect width="1200" height="360" rx="32" fill="#07111F"/>
  <rect x="1" y="1" width="1198" height="358" rx="31" stroke="#22D3EE" stroke-opacity=".18" stroke-width="2"/>
  <text x="42" y="58" fill="#22D3EE" font-family="Segoe UI, Arial, sans-serif" font-size="32" font-weight="850">Ροή native σάρωσης</text>
  <g font-family="Segoe UI, Arial, sans-serif" font-weight="760">
    <g transform="translate(70 105)">
      <circle cx="34" cy="34" r="34" fill="#0B1728" stroke="#22D3EE" stroke-width="4"/>
      <text x="26" y="45" fill="#F8FAFC" font-size="30">1</text>
      <text x="-22" y="105" fill="#E2E8F0" font-size="20">Επιλογή φακέλου</text>
    </g>
    <g transform="translate(295 105)">
      <circle cx="34" cy="34" r="34" fill="#0B1728" stroke="#22D3EE" stroke-width="4"/>
      <text x="25" y="45" fill="#F8FAFC" font-size="30">2</text>
      <text x="-10" y="105" fill="#E2E8F0" font-size="20">Επιλογή χώρου</text>
    </g>
    <g transform="translate(520 105)">
      <circle cx="34" cy="34" r="34" fill="#0B1728" stroke="#22D3EE" stroke-width="4"/>
      <text x="25" y="45" fill="#F8FAFC" font-size="30">3</text>
      <text x="-8" y="105" fill="#E2E8F0" font-size="20">Σάρωση QR</text>
    </g>
    <g transform="translate(745 105)">
      <circle cx="34" cy="34" r="34" fill="#0B1728" stroke="#22D3EE" stroke-width="4"/>
      <text x="25" y="45" fill="#F8FAFC" font-size="30">4</text>
      <text x="-42" y="105" fill="#E2E8F0" font-size="20">Καταγραφή αποτελέσματος</text>
    </g>
    <g transform="translate(1000 105)">
      <circle cx="34" cy="34" r="34" fill="#0B1728" stroke="#22D3EE" stroke-width="4"/>
      <text x="25" y="45" fill="#F8FAFC" font-size="30">5</text>
      <text x="-18" y="105" fill="#E2E8F0" font-size="20">Συγχρονισμός</text>
    </g>
  </g>
  <path d="M160 139h110M385 139h110M610 139h110M855 139h110" stroke="#34D399" stroke-width="5" stroke-linecap="round" stroke-dasharray="10 14"/>
  <text x="42" y="305" fill="#94A3B8" font-family="Segoe UI, Arial, sans-serif" font-size="21" font-weight="600">Το web app μένει για διαχείριση, αναφορές και εκτύπωση. Η κάμερα περνάει στη native Android εφαρμογή.</text>
</svg>
