<svg xmlns="http://www.w3.org/2000/svg" viewBox="0 0 470 128" role="img" aria-label="School Inventory Manager logo">
  <defs>
    <linearGradient id="g" x1="18" y1="12" x2="112" y2="118" gradientUnits="userSpaceOnUse">
      <stop stop-color="#4f8cff"/>
      <stop offset="1" stop-color="#34d399"/>
    </linearGradient>
    <filter id="s" x="-20%" y="-20%" width="140%" height="140%">
      <feDropShadow dx="0" dy="10" stdDeviation="10" flood-color="#000" flood-opacity=".25"/>
    </filter>
  </defs>
  <rect x="10" y="10" width="108" height="108" rx="30" fill="url(#g)" filter="url(#s)"/>
  <path d="M37 44c0-8 7-14 16-14h34c3 0 6 3 6 6v56c0 3-3 6-6 6H48c-6 0-11-5-11-11V44Z" fill="#07111f" opacity=".92"/>
  <path d="M50 44h31M50 57h31M50 70h22" stroke="#e5edf7" stroke-width="7" stroke-linecap="round"/>
  <circle cx="91" cy="91" r="15" fill="#34d399"/>
  <path d="m84 91 5 5 10-12" fill="none" stroke="#07111f" stroke-width="5" stroke-linecap="round" stroke-linejoin="round"/>
  <text x="140" y="57" font-family="Segoe UI, Arial, sans-serif" font-size="30" font-weight="800" fill="#e5edf7">School Inventory</text>
  <text x="140" y="91" font-family="Segoe UI, Arial, sans-serif" font-size="23" font-weight="650" fill="#9fb0c7">Manager</text>
</svg>
